<svg xmlns="http://www.w3.org/2000/svg" viewBox="0 66 240 234" role="img" aria-label="Phil the Tip Jar">
  <title>Phil the Tip Jar</title>
  <defs>
    <linearGradient id="glass" x1="0" y1="0" x2="1" y2="0">
      <stop offset="0" stop-color="#eef8f9"/>
      <stop offset="0.18" stop-color="#ffffff"/>
      <stop offset="0.5" stop-color="#cfeaec"/>
      <stop offset="0.82" stop-color="#aedadd"/>
      <stop offset="1" stop-color="#cfeaec"/>
    </linearGradient>
    <linearGradient id="mouth" x1="0" y1="0" x2="0" y2="1">
      <stop offset="0" stop-color="#6fa6a9"/>
      <stop offset="1" stop-color="#bfe2e4"/>
    </linearGradient>
    <linearGradient id="coin" x1="0" y1="0" x2="0" y2="1">
      <stop offset="0" stop-color="#ffe187"/>
      <stop offset="1" stop-color="#d99a30"/>
    </linearGradient>
    <radialGradient id="shadow" cx="0.5" cy="0.5" r="0.5">
      <stop offset="0" stop-color="#000000" stop-opacity="0.28"/>
      <stop offset="1" stop-color="#000000" stop-opacity="0"/>
    </radialGradient>
  </defs>

  <!-- ground shadow -->
  <ellipse cx="120" cy="287" rx="78" ry="11" fill="url(#shadow)"/>

  <!-- jar body -->
  <path d="M62 84 L178 84 C190 84 195 98 195 114 L195 250 C195 272 181 280 165 280 L75 280 C59 280 45 272 45 250 L45 114 C45 98 50 84 62 84 Z"
        fill="url(#glass)" stroke="#5d8b8e" stroke-width="2.5" stroke-opacity="0.65"/>

  <!-- contents: overlapping bills + coins -->
  <clipPath id="bodyclip">
    <path d="M62 84 L178 84 C190 84 195 98 195 114 L195 250 C195 272 181 280 165 280 L75 280 C59 280 45 272 45 250 L45 114 C45 98 50 84 62 84 Z"/>
  </clipPath>
  <g clip-path="url(#bodyclip)">
    <g transform="rotate(10 152 252)">
      <rect x="114" y="229" width="78" height="46" rx="4" fill="#83c193" stroke="#3f7a54" stroke-width="1.8"/>
      <rect x="119" y="234" width="68" height="36" rx="3" fill="none" stroke="#3f7a54" stroke-width="1" stroke-opacity="0.55"/>
      <ellipse cx="153" cy="252" rx="9" ry="11" fill="#a6d6b1" stroke="#3f7a54" stroke-width="1"/>
    </g>
    <g transform="rotate(-11 92 250)">
      <rect x="54" y="227" width="76" height="46" rx="4" fill="#7bbb8b" stroke="#3f7a54" stroke-width="1.8"/>
      <rect x="59" y="232" width="66" height="36" rx="3" fill="none" stroke="#3f7a54" stroke-width="1" stroke-opacity="0.55"/>
      <ellipse cx="92" cy="250" rx="9" ry="11" fill="#9fd0ab" stroke="#3f7a54" stroke-width="1"/>
    </g>
    <g stroke="#b07d1f" stroke-width="1.5">
      <ellipse cx="78" cy="273" rx="22" ry="8" fill="url(#coin)"/>
      <ellipse cx="150" cy="274" rx="22" ry="8" fill="url(#coin)"/>
      <ellipse cx="114" cy="277" rx="20" ry="7.5" fill="url(#coin)"/>
    </g>
  </g>

  <!-- glass highlights -->
  <path d="M58 104 q8 -6 14 0 v150 q-7 6 -14 0 z" fill="#ffffff" opacity="0.5"/>
  <path d="M80 108 q3 -3 6 0 v140 q-3 3 -6 0 z" fill="#ffffff" opacity="0.3"/>
  <path d="M178 120 q4 -3 7 0 v120 q-4 3 -7 0 z" fill="#ffffff" opacity="0.18"/>

  <!-- open jar mouth (no lid) -->
  <ellipse cx="120" cy="84" rx="59" ry="12" fill="url(#glass)" stroke="#5d8b8e" stroke-width="2.5" stroke-opacity="0.7"/>
  <ellipse cx="120" cy="84" rx="50" ry="8.5" fill="url(#mouth)" stroke="#5d8b8e" stroke-width="1.5" stroke-opacity="0.5"/>

  <!-- paper label -->
  <rect x="54" y="142" width="132" height="84" rx="6" fill="#fbf5e6" stroke="#c4a86a" stroke-width="2"/>
  <rect x="60" y="148" width="120" height="72" rx="4" fill="none" stroke="#c4a86a" stroke-width="1" stroke-opacity="0.7"/>
  <text x="120" y="174" text-anchor="middle" font-family="Georgia, 'Times New Roman', serif" font-weight="bold" font-size="22" fill="#4a3f24">Phil</text>
  <text x="120" y="195" text-anchor="middle" font-family="Georgia, 'Times New Roman', serif" font-style="italic" font-size="18" fill="#7a6a3a">the</text>
  <text x="120" y="217" text-anchor="middle" font-family="Georgia, 'Times New Roman', serif" font-weight="bold" font-size="22" letter-spacing="1.5" fill="#4a3f24">TIP JAR</text>
</svg>
